<svg id="SvgjsSvg1177" width="288" height="288" xmlns="http://www.w3.org/2000/svg" version="1.1" xmlns:xlink="http://www.w3.org/1999/xlink" xmlns:svgjs="http://svgjs.com/svgjs"><defs id="SvgjsDefs1178"></defs><g id="SvgjsG1179"><svg xmlns="http://www.w3.org/2000/svg" viewBox="0 0 24 24" width="288" height="288"><path fill="none" d="M0 0h24v24H0V0z"></path><path d="M12 2c1.1 0 2 .9 2 2s-.9 2-2 2-2-.9-2-2 .9-2 2-2zm8 7h-5v12c0 .55-.45 1-1 1s-1-.45-1-1v-5h-2v5c0 .55-.45 1-1 1s-1-.45-1-1V9H4c-.55 0-1-.45-1-1s.45-1 1-1h16c.55 0 1 .45 1 1s-.45 1-1 1z" fill="#e9445c" class="color000 svgShape"></path></svg></g></svg>