<svg id="SvgjsSvg1197" width="288" height="288" xmlns="http://www.w3.org/2000/svg" version="1.1" xmlns:xlink="http://www.w3.org/1999/xlink" xmlns:svgjs="http://svgjs.com/svgjs"><defs id="SvgjsDefs1198"></defs><g id="SvgjsG1199"><svg xmlns="http://www.w3.org/2000/svg" viewBox="0 0 64 64" width="288" height="288"><path d="M59 18a.83.83 0 0 0-.07-.34 1.27 1.27 0 0 0-.18-.27l-.08-.06a.6.6 0 0 0-.21-.14l-.09-.05A1 1 0 0 0 58 17h-4a1 1 0 0 0 0 2h1.59L51 23.57a3.86 3.86 0 0 0-4 0L42.43 19a4 4 0 1 0-6.12.92l-1.6 3A12 12 0 0 0 20 27.46a3.41 3.41 0 0 0 0-.46 4 4 0 0 0-8 0 4 4 0 0 0 .76 2.32l-7.53 9a1 1 0 0 0 .13 1.41A1 1 0 0 0 6 40a1 1 0 0 0 .77-.36l7.52-9a3.92 3.92 0 0 0 4.45-.7A11.88 11.88 0 0 0 18 34a12 12 0 0 0 18.67 10 4.48 4.48 0 0 0-.06.64 3.92 3.92 0 0 0 1.17 2.82L42 51.68A4 4 0 0 0 47.68 46l-4.25-4.24a3.92 3.92 0 0 0-2.82-1.17 4.48 4.48 0 0 0-.64.06 12 12 0 0 0-3.5-16.76l1.61-3a3.78 3.78 0 0 0 2.92-.46L45.57 25a4 4 0 1 0 6.86 0L57 20.41V22a1 1 0 0 0 2 0v-4Zm-29 6a10.05 10.05 0 0 1 3.77.74l-1.89 3.57A5.84 5.84 0 0 0 30 28a6 6 0 0 0-4.83 2.46l-3.61-1.8A10 10 0 0 1 30 24Zm0 6a4 4 0 1 1-4 4 4 4 0 0 1 4-4Zm-14-1a2 2 0 1 1 2-2 2 2 0 0 1-2 2Zm26 14.19 4.24 4.24a2 2 0 0 1-2.83 2.83L39.19 46A2 2 0 0 1 42 43.19ZM40 34a10 10 0 1 1-19.34-3.55l3.6 1.79A6 6 0 1 0 36 34a6 6 0 0 0-2.35-4.75l1.89-3.57A10 10 0 0 1 40 34Zm-3-17a2 2 0 0 1 4 0 2 2 0 0 1-.59 1.41A2 2 0 0 1 39 19a2 2 0 0 1-2-2Zm12 12a2 2 0 0 1-2-2 2 2 0 0 1 .59-1.41 2 2 0 0 1 2.82 0A2 2 0 0 1 51 27a2 2 0 0 1-2 2Z" fill="#ffffff" class="color000 svgShape"></path></svg></g></svg>