<svg id="SvgjsSvg1147" width="288" height="288" xmlns="http://www.w3.org/2000/svg" version="1.1" xmlns:xlink="http://www.w3.org/1999/xlink" xmlns:svgjs="http://svgjs.com/svgjs"><defs id="SvgjsDefs1148"></defs><g id="SvgjsG1149"><svg xmlns="http://www.w3.org/2000/svg" viewBox="0 0 64 64" width="288" height="288"><path d="M29.64 41.1c-4.32 0-7.84-3.52-7.84-7.84s3.52-7.84 7.84-7.84 7.84 3.52 7.84 7.84c0 4.33-3.52 7.84-7.84 7.84zm0-13.73a5.91 5.91 0 0 0-5.9 5.9c0 3.25 2.65 5.9 5.9 5.9 3.25 0 5.9-2.65 5.9-5.9 0-3.26-2.65-5.9-5.9-5.9z" fill="#ffffff" class="color000 svgShape"></path><path d="M29.64 48.31c-8.29 0-15.04-6.75-15.04-15.04s6.75-15.04 15.04-15.04 15.04 6.75 15.04 15.04-6.74 15.04-15.04 15.04zm0-28.15c-7.23 0-13.1 5.88-13.1 13.1s5.88 13.1 13.1 13.1 13.1-5.88 13.1-13.1c.01-7.22-5.87-13.1-13.1-13.1z" fill="#ffffff" class="color000 svgShape"></path><path d="M29.64 55.14c-12.06 0-21.87-9.81-21.87-21.87S17.58 11.4 29.64 11.4s21.87 9.81 21.87 21.87c0 12.05-9.81 21.87-21.87 21.87zm0-41.81c-10.99 0-19.93 8.94-19.93 19.93S18.65 53.2 29.64 53.2s19.93-8.94 19.93-19.93-8.94-19.94-19.93-19.94z" fill="#ffffff" class="color000 svgShape"></path><path d="M29.64 61.81C13.9 61.81 1.09 49 1.09 33.26S13.9 4.71 29.64 4.71s28.55 12.81 28.55 28.55c0 15.75-12.8 28.55-28.55 28.55zm0-55.16c-14.67 0-26.61 11.94-26.61 26.61s11.94 26.61 26.61 26.61 26.61-11.94 26.61-26.61S44.32 6.65 29.64 6.65zm27.56 5.14c-.04 0-.08 0-.12-.01l-4.56-.55a.977.977 0 0 1-.85-.85l-.55-4.56c-.04-.3.07-.59.28-.8L56.14.28a.972.972 0 0 1 1.65.57l.46 3.81 3.81.46a.972.972 0 0 1 .57 1.65l-4.74 4.74c-.19.18-.43.28-.69.28zM53.51 9.4l3.34.41 2.99-2.99-2.58-.31a.957.957 0 0 1-.84-.85l-.32-2.6-2.99 2.99.4 3.35z" fill="#ffffff" class="color000 svgShape"></path><path d="M29.64 34.24a.966.966 0 0 1-.69-1.65l23-23c.38-.38.99-.38 1.37 0 .38.38.38.99 0 1.37l-23 23a.97.97 0 0 1-.68.28zM13 64H7.04c-.35 0-.68-.19-.85-.5a.957.957 0 0 1 .03-.98l5.23-8.35c.28-.45.89-.59 1.34-.31.45.28.59.88.31 1.34l-4.3 6.86h3.69l3.33-5.02c.29-.45.9-.57 1.34-.27.45.3.57.9.27 1.34l-3.62 5.46c-.18.27-.49.43-.81.43zm39.26 0h-5.98c-.32 0-.63-.16-.81-.43l-3.62-5.46a.965.965 0 0 1 .27-1.34.965.965 0 0 1 1.34.27l3.33 5.02h3.7l-4.3-6.86a.975.975 0 0 1 .31-1.34.975.975 0 0 1 1.34.31l5.23 8.35c.19.3.2.68.03.98-.16.31-.49.5-.84.5z" fill="#ffffff" class="color000 svgShape"></path></svg></g></svg>