<svg id="SvgjsSvg1246" width="288" height="288" xmlns="http://www.w3.org/2000/svg" version="1.1" xmlns:xlink="http://www.w3.org/1999/xlink" xmlns:svgjs="http://svgjs.com/svgjs"><defs id="SvgjsDefs1247"></defs><g id="SvgjsG1248"><svg xmlns="http://www.w3.org/2000/svg" viewBox="0 0 96 96" width="288" height="288"><g data-name="Cloud Marketing" fill="#e9445c" class="color000 svgShape"><path d="M77.29,23.32A25.73,25.73,0,0,0,51.7,0C38.23,0,26,10.63,26,26.34A13.13,13.13,0,0,0,9.5,42a7.21,7.21,0,0,0,.72,14.39H26.14v1.92a2.47,2.47,0,0,0,1.91,2.4,22.43,22.43,0,0,0,5.71,14,3.81,3.81,0,0,0,5.78-.18c-1-.85-1-.89,0,0h0a3.77,3.77,0,0,0-.1-4.94,14.71,14.71,0,0,1-3.74-9,2.46,2.46,0,0,0,1.68-2.32V56.43h.86a3.09,3.09,0,0,0,2.8,1.78h.7a3.12,3.12,0,0,0,2.39-1.12c.46.1.92.22,1.37.35a69.29,69.29,0,0,1,15.6,6c5.61,3,5.95,3.4,7.19,3.4A3.66,3.66,0,0,0,72,63.23v-6.8h4.48a16.57,16.57,0,0,0,.86-33.11ZM27.2,54.16h-.77A3.46,3.46,0,0,1,23,50.7V38.25a3.47,3.47,0,0,1,3.46-3.46h.77Zm.94,4.19V56.43H35.4v1.92a.47.47,0,0,1-.46.46H28.6A.46.46,0,0,1,28.14,58.35Zm4.71-19.21v2.23H29.2V39.14Zm-3.65-2V34.8h3.65v2.34Zm3.65,6.23V45.6H29.2V43.37Zm0,4.23v2.23H29.2V47.6Zm0,4.23v2.33H29.2V51.83ZM38,71a1.84,1.84,0,0,1-2.72,2.47A20.3,20.3,0,0,1,30,60.82h3.67A16.78,16.78,0,0,0,38,71Zm0-16.77c-.9-.05-1.62,0-3.09,0V34.79c1.4,0,2.19,0,3.09,0Zm5,.88a1.14,1.14,0,0,1-1.13,1.13h-.7a1.13,1.13,0,0,1-1.12-1.13V50.37h3Zm-3-6.71V45.48h3v2.89Zm3-4.89h-3v-9.6a1.13,1.13,0,0,1,1.12-1.13h.7a1.14,1.14,0,0,1,1.13,1.13ZM70,63.23a1.64,1.64,0,0,1-2.43,1.44L64,62.79V58.17a1,1,0,0,0-2,0v3.54a67.42,67.42,0,0,0-12.79-5.28c-.18-.06-3.54-1-4.37-1.22,0-.11,0-.64,0-2.75a73.22,73.22,0,0,1,9.36,3A1,1,0,0,0,55,53.59a81,81,0,0,0-10.1-3.2c0-17,0-16.53,0-16.63A71.07,71.07,0,0,0,62,27.24v3.41a1,1,0,0,0,2,0V26.17l3.48-1.88A1.64,1.64,0,0,1,70,25.73Zm6.48-8.8H72v-3.5l2-.62a3.2,3.2,0,0,0,2.26-3.07V41.72a3.2,3.2,0,0,0-2.26-3.07L72,38V25.73a3.64,3.64,0,0,0-5.38-3.2c-6.27,3.4-10.68,6-18.51,8.26-2.53.73-3.06.9-3.9,1.08a3.12,3.12,0,0,0-2.4-1.12h-.7a3.1,3.1,0,0,0-2.9,2c-1.44.07-.87,0-11.73,0A5.47,5.47,0,0,0,21,37.58l-4,1.73a2.63,2.63,0,0,0-1.58,2.41v5.52A2.62,2.62,0,0,0,17,49.65l4,1.74a5.38,5.38,0,0,0,1.41,3H10.22a5.22,5.22,0,1,1,0-10.43h.6a1,1,0,0,0,.95-1.33,11.14,11.14,0,0,1,14.82-14A1,1,0,0,0,28,27.76v-2a23.71,23.71,0,0,1,47.39-1.38,1.06,1.06,0,0,0,1.07.94,14.57,14.57,0,1,1,0,29.13ZM72,48.83v-8.7l1.39.43a1.2,1.2,0,0,1,.85,1.16v5.52a1.2,1.2,0,0,1-.85,1.16Zm-51-9v9.41L17.8,47.82a.64.64,0,0,1-.38-.58V41.72a.62.62,0,0,1,.38-.57Z" fill="#e9445c" class="color000 svgShape"></path><path d="M63 34.61a1 1 0 00-1 1V52.05a1 1 0 002 0V35.61A1 1 0 0063 34.61zM68.77 70.92H60.34l-5.66-5.66a3.16 3.16 0 00-5.39 2.23v3.44a5 5 0 00-4.85 5V91a5 5 0 005 5H68.77a5 5 0 005-5V75.91A5 5 0 0068.77 70.92zm3 20.08a3 3 0 01-3 3H49.43a3 3 0 01-3-3V75.91a3 3 0 013-3h.86a1 1 0 001-1V67.49a1.16 1.16 0 012-.82l5.95 6a1 1 0 00.71.29h8.84a3 3 0 013 3z" fill="#e9445c" class="color000 svgShape"></path><path d="M56.61 81.07a3.06 3.06 0 10-5.23-2.17A3.06 3.06 0 0056.61 81.07zM53.38 78.9a1.06 1.06 0 011.81-.75h0a1.06 1.06 0 11-1.81.75zM65.92 86.05a3.07 3.07 0 100 4.34 3.07 3.07 0 000-4.34zM64.51 89A1.1 1.1 0 0163 89a1.06 1.06 0 111.51 0zM65 77.69a1 1 0 00-1.41 0L53.23 88a1 1 0 101.41 1.41L65 79.1A1 1 0 0065 77.69z" fill="#e9445c" class="color000 svgShape"></path></g></svg></g></svg>