<svg id="SvgjsSvg1118" width="288" height="288" xmlns="http://www.w3.org/2000/svg" version="1.1" xmlns:xlink="http://www.w3.org/1999/xlink" xmlns:svgjs="http://svgjs.com/svgjs"><defs id="SvgjsDefs1119"></defs><g id="SvgjsG1120"><svg xmlns="http://www.w3.org/2000/svg" viewBox="0 0 32 32" width="288" height="288"><path d="M3.5 4.5h8a.5.5 0 0 0 0-1h-8a.5.5 0 0 0 0 1zM28.5 5.5h-6a.5.5 0 0 0 0 1h6a.5.5 0 0 0 0-1zM28.5 7.5h-6a.5.5 0 0 0 0 1h6a.5.5 0 0 0 0-1zM3.5 6.5h8a.5.5 0 0 0 0-1h-8a.5.5 0 0 0 0 1zM8.5 8.5a.5.5 0 0 0 0-1h-5a.5.5 0 0 0 0 1h5zM14.5 30.5a.5.5 0 0 0 .5-.5v-2.933c0-.892-.475-1.73-1.239-2.188l-2.357-1.414-.875-.971a.496.496 0 0 0-.243-.138v-.807a3.583 3.583 0 0 0 1.322-2.767V17.52l.541-2.506a1.916 1.916 0 0 0-.319-1.454 1.917 1.917 0 0 0-1.26-.792l-3.366-.562a1.888 1.888 0 0 0-2.165 1.475 1.658 1.658 0 0 0-1.158 1.965l.514 1.876v1.259c0 1.117.522 2.105 1.322 2.767v.809a.491.491 0 0 0-.24.136l-.863.959-2.375 1.428A2.563 2.563 0 0 0 1 27.067V30a.5.5 0 0 0 1 0v-2.933c0-.542.289-1.052.753-1.33l2.054-1.233 1.097 1.372a.502.502 0 0 0 .363.187l.028.001a.507.507 0 0 0 .354-.146l.847-.847V30a.5.5 0 0 0 1 0v-4.948l.865.865a.5.5 0 0 0 .354.146l.028-.001a.498.498 0 0 0 .363-.187l1.094-1.368 2.048 1.229c.463.28.752.789.752 1.331V30a.5.5 0 0 0 .5.5zM4.985 14.861a.654.654 0 0 1 .509-.243c.276 0 .5-.262.5-.538a.9.9 0 0 1 1.045-.887l3.366.562a.92.92 0 0 1 .606.382.913.913 0 0 1 .157.683l-.327 1.512-.199-.248v-.537a.5.5 0 0 0-.5-.5h-4.28a.5.5 0 0 0-.5.5v.538l-.241.3-.267-.975a.655.655 0 0 1 .131-.549zm.411 3.92v-1.143l.855-1.065a.502.502 0 0 0 .11-.313v-.214h3.282v.214c0 .114.039.225.111.313l.854 1.061v1.147c0 1.438-1.169 2.606-2.606 2.606s-2.606-1.168-2.606-2.606zm2.607 3.607c.454 0 .884-.094 1.284-.247v.55l-1.283.611-1.286-.612v-.548c.401.152.831.246 1.285.246zm-1.667 2.427l-.753-.942.389-.432 1.177.561-.813.813zm3.336 0l-.813-.813 1.177-.562.39.434-.754.941z" fill="#ffffff" class="color000 svgShape"></path><path d="M4.098 30.5a.5.5 0 0 0 .5-.5v-1.136c0-.639-.237-1.25-.667-1.721l-.427-.468a.5.5 0 0 0-.739.675l.427.468c.262.287.406.658.406 1.047V30a.5.5 0 0 0 .5.5zM12.497 26.676l-.427.468a2.542 2.542 0 0 0-.667 1.721V30a.5.5 0 0 0 1 0v-1.136c0-.389.144-.76.406-1.047l.427-.468a.5.5 0 1 0-.739-.673zM30.5 30.5a.5.5 0 0 0 .5-.5v-2.484c0-.993-.503-1.9-1.347-2.427l-3.386-2.107V21.68a3.425 3.425 0 0 0 1.181-2.576v-.535l.084-.139a3.794 3.794 0 0 0 .346-1.588c0-1.452-.825-2.701-2.021-3.344.074-.178.118-.364.118-.556 0-.926-.885-1.68-1.974-1.68s-1.974.754-1.974 1.68c0 .214.049.422.14.617-1.135.66-1.909 1.877-1.909 3.283 0 .506.101.997.294 1.46v.802c0 1.028.462 1.942 1.178 2.574v1.303l-3.384 2.109A2.839 2.839 0 0 0 17 27.515V30a.5.5 0 0 0 1 0v-2.485c0-.646.327-1.235.875-1.576l2.263-1.41A4.599 4.599 0 0 0 24 25.546a4.597 4.597 0 0 0 2.861-1.016l2.263 1.408c.548.342.876.931.876 1.578V30a.5.5 0 0 0 .5.5zm-7.416-17.337a.471.471 0 0 1-.058-.221c0-.368.446-.68.974-.68s.974.312.974.68a.434.434 0 0 1-.044.189c-.015-.004-.031-.004-.047-.008-.049-.011-.1-.016-.15-.025a3.756 3.756 0 0 0-.588-.059c-.027-.001-.052-.008-.078-.008l-.03.003a3.735 3.735 0 0 0-.83.104c-.041.01-.082.014-.123.025zm.201.993c.085-.025.169-.055.255-.071.163-.031.331-.049.503-.051.052 0 .103.008.155.011.122.006.242.016.359.036.08.014.159.037.238.058a2.807 2.807 0 0 1 2.078 2.855 1.923 1.923 0 0 0-1.331-.533c-.99 0-1.936-.307-2.735-.886a.498.498 0 0 0-.784.49 2.785 2.785 0 0 0-.747.588 2.8 2.8 0 0 1 2.009-2.497zm-1.733 4.948v-.57a1.8 1.8 0 0 1 1.334-1.741 5.617 5.617 0 0 0 2.657.669c.469 0 .843.356.904.808v.835c0 1.35-1.098 2.447-2.447 2.447s-2.448-1.099-2.448-2.448zm.494 4.859l.448-.279a.491.491 0 0 0 .226-.425h.009v-.957c.394.157.821.249 1.27.249.448 0 .874-.092 1.267-.248v.956a.5.5 0 0 0 .236.425l.45.28a3.76 3.76 0 0 1-3.906-.001z" fill="#ffffff" class="color000 svgShape"></path><path d="M20.168 30.5a.5.5 0 0 0 .5-.5v-1.373c0-.602-.223-1.178-.628-1.621l-.397-.436a.5.5 0 0 0-.74.674l.397.436c.237.26.367.596.367.947V30c.001.276.225.5.501.5zM28.357 26.57l-.396.435a2.4 2.4 0 0 0-.63 1.622V30a.5.5 0 0 0 1 0v-1.373c0-.352.13-.688.368-.947l.397-.436a.5.5 0 0 0-.739-.674zM3.309 13.462a.504.504 0 0 0 .545-.108L6.707 10.5H12.5c.827 0 1.5-.673 1.5-1.5V3c0-.827-.673-1.5-1.5-1.5h-10C1.673 1.5 1 2.173 1 3v6c0 .827.673 1.5 1.5 1.5H3V13a.5.5 0 0 0 .309.462zM2.5 9.5A.5.5 0 0 1 2 9V3a.5.5 0 0 1 .5-.5h10a.5.5 0 0 1 .5.5v6a.5.5 0 0 1-.5.5h-6a.504.504 0 0 0-.354.146L4 11.793V10a.5.5 0 0 0-.5-.5h-1zM31 5c0-.827-.673-1.5-1.5-1.5h-8c-.827 0-1.5.673-1.5 1.5v4c0 .827.673 1.5 1.5 1.5h3.849l2.874 1.916a.495.495 0 0 0 .513.024A.498.498 0 0 0 29 12v-1.5h.5c.827 0 1.5-.673 1.5-1.5V5zm-1 4a.5.5 0 0 1-.5.5h-1a.5.5 0 0 0-.5.5v1.065l-2.223-1.481A.496.496 0 0 0 25.5 9.5h-4A.5.5 0 0 1 21 9V5a.5.5 0 0 1 .5-.5h8a.5.5 0 0 1 .5.5v4z" fill="#ffffff" class="color000 svgShape"></path></svg></g></svg>