<svg id="SvgjsSvg1038" width="288" height="288" xmlns="http://www.w3.org/2000/svg" version="1.1" xmlns:xlink="http://www.w3.org/1999/xlink" xmlns:svgjs="http://svgjs.com/svgjs"><defs id="SvgjsDefs1039"></defs><g id="SvgjsG1040"><svg xmlns="http://www.w3.org/2000/svg" viewBox="0 0 48 48" width="288" height="288"><path fill="none" d="M0 0h48v48H0z"></path><path d="M20 6H10c-2.21 0-4 1.79-4 4v28c0 2.21 1.79 4 4 4h10v4h4V2h-4v4zm0 30H10l10-12v12zM38 6H28v4h10v26L28 24v18h10c2.21 0 4-1.79 4-4V10c0-2.21-1.79-4-4-4z" fill="#e9445c" class="color000 svgShape"></path></svg></g></svg>