<svg id="SvgjsSvg1119" width="288" height="288" xmlns="http://www.w3.org/2000/svg" version="1.1" xmlns:xlink="http://www.w3.org/1999/xlink" xmlns:svgjs="http://svgjs.com/svgjs"><defs id="SvgjsDefs1120"></defs><g id="SvgjsG1121"><svg xmlns="http://www.w3.org/2000/svg" viewBox="0 0 24 24" width="288" height="288"><path d="M11 7h2c.6 0 1-.4 1-1s-.4-1-1-1h-2c-.6 0-1 .4-1 1s.4 1 1 1z" fill="#ffffff" class="color000 svgShape"></path><path d="M5 18c0 2.2 1.8 4 4 4h6c2.2 0 4-1.8 4-4V6c0-2.2-1.8-4-4-4H9C6.8 2 5 3.8 5 6v12zM7 6c0-1.1.9-2 2-2h6c1.1 0 2 .9 2 2v12c0 1.1-.9 2-2 2H9c-1.1 0-2-.9-2-2V6z" fill="#ffffff" class="color000 svgShape"></path><path d="m9.6 14.9 2 1c.1.1.2.1.4.1.4 0 .7-.2.9-.6l2-4c.2-.5 0-1.1-.4-1.3-.5-.2-1.1 0-1.3.4l-1.6 3.1-1.1-.6c-.5-.2-1.1 0-1.3.4-.3.6-.1 1.2.4 1.5z" fill="#ffffff" class="color000 svgShape"></path></svg></g></svg>