<svg xmlns="http://www.w3.org/2000/svg" width="16" height="16"><path fill="#c2e4f8" d="M9.5.5h6v6h-6zm-9 9h6v6h-6z"/><path fill="#fff" d="M.5.5h6v6h-6z"/><path style="line-height:normal;text-indent:0;text-align:start;text-decoration-line:none;text-decoration-style:solid;text-decoration-color:#000;text-transform:none;block-progression:tb;isolation:auto;mix-blend-mode:normal" fill="#249fe6" d="M.5 1036.361a.5.5 0 0 0-.5.5v6a.5.5 0 0 0 .5.5h6a.5.5 0 0 0 .5-.5v-6a.5.5 0 0 0-.5-.5h-6zm.5 1h5v5H1v-5zm8.5-1a.5.5 0 0 0-.5.5v6a.5.5 0 0 0 .5.5h6a.5.5 0 0 0 .5-.5v-6a.5.5 0 0 0-.5-.5h-6zm.5 1h5v5h-5v-5zm-9.5 8a.5.5 0 0 0-.5.5v6a.5.5 0 0 0 .5.5h6a.5.5 0 0 0 .5-.5v-6a.5.5 0 0 0-.5-.5h-6zm.5 1h5v5H1v-5z" color="#000" font-family="sans-serif" font-weight="400" overflow="visible" transform="translate(0 -1036.362)"/><path style="line-height:normal;text-indent:0;text-align:start;text-decoration-line:none;text-decoration-style:solid;text-decoration-color:#000;text-transform:none;block-progression:tb;isolation:auto;mix-blend-mode:normal" fill="#249fe6" fill-rule="evenodd" d="M9.582 1045.363a.582.582 0 0 0-.404 1l5.822 5.822a.582.582 0 1 0 .824-.822L10 1045.54a.582.582 0 0 0-.418-.176z" color="#000" font-family="sans-serif" font-weight="400" overflow="visible" transform="translate(0 -1036.362)"/><path style="line-height:normal;text-indent:0;text-align:start;text-decoration-line:none;text-decoration-style:solid;text-decoration-color:#000;text-transform:none;block-progression:tb;isolation:auto;mix-blend-mode:normal" fill="#249fe6" fill-rule="evenodd" d="M15.395 1045.357a.582.582 0 0 0-.4.176l-5.823 5.824a.582.582 0 1 0 .822.823l5.824-5.823a.582.582 0 0 0-.423-1z" color="#000" font-family="sans-serif" font-weight="400" overflow="visible" transform="translate(0 -1036.362)"/></svg>