<svg id="SvgjsSvg1054" width="288" height="288" xmlns="http://www.w3.org/2000/svg" version="1.1" xmlns:xlink="http://www.w3.org/1999/xlink" xmlns:svgjs="http://svgjs.com/svgjs"><defs id="SvgjsDefs1055"></defs><g id="SvgjsG1056"><svg xmlns="http://www.w3.org/2000/svg" viewBox="0 0 25 25" width="288" height="288"><path d="M12.5 0C5.602 0 0 5.602 0 12.5S5.602 25 12.5 25 25 19.398 25 12.5 19.398 0 12.5 0zm0 .938c6.378 0 11.563 5.184 11.563 11.562 0 6.378-5.185 11.531-11.563 11.531A11.519 11.519 0 0 1 .969 12.5C.969 6.122 6.122.937 12.5.937zM10.562 6c-.185.01-.411.035-.624.094-.214.058-.434.15-.626.343-.191.194-.312.506-.312.813V11c-.01.026-.035.052-.063.094a4.455 4.455 0 0 1-.312.406c-.118.137-.236.27-.344.406-.054.068-.109.137-.156.219-.047.082-.094.149-.094.344 0 .197.072.325.125.406.053.081.1.127.156.188.112.121.23.254.344.374.227.242.344.489.344.563v3.75c0 .333.162.655.375.844.213.189.466.292.688.343.443.104.88.063.937.063v-1c-.186 0-.473.026-.719-.031a.635.635 0 0 1-.25-.125c-.03-.026-.031-.014-.031-.094V14c0-.58-.355-.962-.625-1.25-.108-.115-.175-.203-.25-.281.075-.092.14-.216.25-.344.127-.148.26-.292.375-.469.115-.176.25-.362.25-.656V7.25c0-.084.013-.075.031-.094a.446.446 0 0 1 .188-.093C10.432 7.005 10.75 7 11 7V6c-.11 0-.252-.01-.438 0zM15 6v1c.249 0 .568 0 .781.063a.446.446 0 0 1 .188.093c.018.02.031.012.031.094V11c0 .578.357.93.625 1.219.102.11.176.17.25.25-.075.073-.148.146-.25.25-.278.284-.656.692-.656 1.281v3.75c0 .081-.002.067-.031.094-.03.026-.097.096-.22.125-.245.057-.532.031-.718.031v1c.057 0 .494.04.938-.063.221-.052.474-.154.687-.343.213-.19.344-.51.344-.844V14c0-.087.144-.328.375-.563.115-.117.23-.224.343-.343.058-.06.133-.138.188-.219.055-.081.125-.174.125-.375 0-.199-.073-.294-.125-.375a1.768 1.768 0 0 0-.156-.219c-.112-.126-.228-.25-.344-.375A2.313 2.313 0 0 1 17 11V7.25c0-.307-.12-.62-.313-.813a1.34 1.34 0 0 0-.625-.343C15.636 5.977 15.22 6 15 6z" color="#000" font-family="Sans" font-weight="400" overflow="visible" style="text-indent:0;text-align:start;line-height:normal;text-transform:none;block-progression:tb;marker:none;-inkscape-font-specification:Sans" fill="#ffffff" class="color000 svgShape"></path></svg></g></svg>