<svg id="SvgjsSvg1254" width="288" height="288" xmlns="http://www.w3.org/2000/svg" version="1.1" xmlns:xlink="http://www.w3.org/1999/xlink" xmlns:svgjs="http://svgjs.com/svgjs"><defs id="SvgjsDefs1255"></defs><g id="SvgjsG1256"><svg xmlns="http://www.w3.org/2000/svg" enable-background="new 0 0 64 64" viewBox="0 0 64 64" width="288" height="288"><path d="M16.2,41.9c-3.1,0-5.8,2.2-6.5,5.2h12.9C22,44.2,19.3,41.9,16.2,41.9z M16.2,41.9c-3.1,0-5.8,2.2-6.5,5.2h12.9
		C22,44.2,19.3,41.9,16.2,41.9z M16.2,33.6c-1.2,0-2.1,0.9-2.1,2.1c0,1.2,1,2.1,2.1,2.1c1.2,0,2.1-1,2.1-2.1
		C18.3,34.6,17.4,33.6,16.2,33.6z M16.2,41.9c-3.1,0-5.8,2.2-6.5,5.2h12.9C22,44.2,19.3,41.9,16.2,41.9z M16.2,33.6
		c-1.2,0-2.1,0.9-2.1,2.1c0,1.2,1,2.1,2.1,2.1c1.2,0,2.1-1,2.1-2.1C18.3,34.6,17.4,33.6,16.2,33.6z M16.2,41.9
		c-3.1,0-5.8,2.2-6.5,5.2h12.9C22,44.2,19.3,41.9,16.2,41.9z M46,30.4l-9.4,3.2c-0.1,0-0.2,0-0.3,0c-0.2,0-0.4-0.1-0.6-0.3
		c-0.2-0.2-0.3-0.6-0.1-0.8l3.5-7.4c-1.7-2.5-2.7-5.4-2.7-8.4c0-0.4,0-0.8,0.1-1.2c0.1-0.6-0.4-1.1-1-1.1h-27
		c-2.2,0-3.9,1.7-3.9,3.9v33.1c0,0.6,0.5,1,1,1h47.8c0.6,0,1-0.5,1-1V32.1c0-0.6-0.6-1.1-1.2-1C50.8,31.4,48.3,31.2,46,30.4z
		 M24.1,48.4c-0.1,0.2-0.4,0.3-0.6,0.3H8.8c-0.2,0-0.4-0.1-0.6-0.3C8.1,48.3,8,48.1,8,47.8c0.4-4.2,3.9-7.5,8.2-7.5
		c4.2,0,7.8,3.3,8.1,7.5C24.4,48.1,24.3,48.3,24.1,48.4z M12.5,35.7c0-2,1.7-3.7,3.7-3.7s3.7,1.7,3.7,3.7s-1.7,3.7-3.7,3.7
		S12.5,37.8,12.5,35.7z M25,25.8H8.8C8.4,25.8,8,25.5,8,25c0-0.4,0.4-0.8,0.8-0.8H25c0.4,0,0.8,0.4,0.8,0.8
		C25.8,25.5,25.4,25.8,25,25.8z M25,20H8.8C8.4,20,8,19.7,8,19.2c0-0.4,0.4-0.8,0.8-0.8H25c0.4,0,0.8,0.4,0.8,0.8
		C25.8,19.7,25.4,20,25,20z M49.6,49.1H33.4c-0.4,0-0.8-0.3-0.8-0.8c0-0.4,0.4-0.8,0.8-0.8h16.2c0.4,0,0.8,0.4,0.8,0.8
		C50.3,48.8,50,49.1,49.6,49.1z M49.6,43.3H33.4c-0.4,0-0.8-0.4-0.8-0.8c0-0.4,0.4-0.8,0.8-0.8h16.2c0.4,0,0.8,0.3,0.8,0.8
		C50.3,43,50,43.3,49.6,43.3z M16.2,41.9c-3.1,0-5.8,2.2-6.5,5.2h12.9C22,44.2,19.3,41.9,16.2,41.9z M18.3,35.7
		c0-1.2-0.9-2.1-2.1-2.1s-2.1,0.9-2.1,2.1c0,1.2,1,2.1,2.1,2.1C17.4,37.8,18.3,36.9,18.3,35.7z M16.2,33.6c-1.2,0-2.1,0.9-2.1,2.1
		c0,1.2,1,2.1,2.1,2.1c1.2,0,2.1-1,2.1-2.1C18.3,34.6,17.4,33.6,16.2,33.6z M16.2,41.9c-3.1,0-5.8,2.2-6.5,5.2h12.9
		C22,44.2,19.3,41.9,16.2,41.9z M16.2,41.9c-3.1,0-5.8,2.2-6.5,5.2h12.9C22,44.2,19.3,41.9,16.2,41.9z M16.2,33.6
		c-1.2,0-2.1,0.9-2.1,2.1c0,1.2,1,2.1,2.1,2.1c1.2,0,2.1-1,2.1-2.1C18.3,34.6,17.4,33.6,16.2,33.6z M55.3,54L55.3,54H3.8l0,0H1.3
		C0.6,54,0,54.6,0,55.3l0,0c0,2.8,2.2,5,5,5h49c2.8,0,5-2.2,5-5l0,0c0-0.7-0.6-1.3-1.3-1.3H55.3z M43.4,12.5L43.4,12.5
		c-0.1,0.2-0.1,0.4-0.1,0.6V20c0,0.2,0,0.3,0.1,0.4l5.2-4.6L43.4,12.5z M44.7,11.6l6.3,4.1l6.3-4.1H44.7z M52.2,16.6l-0.8,0.5
		c-0.1,0.1-0.3,0.1-0.4,0.1c-0.1,0-0.3,0-0.4-0.1l-0.8-0.5l-5.4,4.8c0.1,0,0.3,0.1,0.4,0.1h12.4c0.1,0,0.3,0,0.4-0.1L52.2,16.6z
		 M58.5,12.4c-0.1,0.1-0.1,0.3-0.3,0.3l-4.8,3.1l5.2,4.6c0-0.1,0.1-0.3,0.1-0.4v-6.9C58.7,12.9,58.6,12.6,58.5,12.4z M58.5,12.4
		c-0.1,0.1-0.1,0.3-0.3,0.3l-4.8,3.1l5.2,4.6c0-0.1,0.1-0.3,0.1-0.4v-6.9C58.7,12.9,58.6,12.6,58.5,12.4z M52.2,16.6l-0.8,0.5
		c-0.1,0.1-0.3,0.1-0.4,0.1c-0.1,0-0.3,0-0.4-0.1l-0.8-0.5l-5.4,4.8c0.1,0,0.3,0.1,0.4,0.1h12.4c0.1,0,0.3,0,0.4-0.1L52.2,16.6z
		 M44.7,11.6l6.3,4.1l6.3-4.1H44.7z M43.4,12.5L43.4,12.5c-0.1,0.2-0.1,0.4-0.1,0.6V20c0,0.2,0,0.3,0.1,0.4l5.2-4.6L43.4,12.5z
		 M43.4,12.5L43.4,12.5c-0.1,0.2-0.1,0.4-0.1,0.6V20c0,0.2,0,0.3,0.1,0.4l5.2-4.6L43.4,12.5z M44.7,11.6l6.3,4.1l6.3-4.1H44.7z
		 M52.2,16.6l-0.8,0.5c-0.1,0.1-0.3,0.1-0.4,0.1c-0.1,0-0.3,0-0.4-0.1l-0.8-0.5l-5.4,4.8c0.1,0,0.3,0.1,0.4,0.1h12.4
		c0.1,0,0.3,0,0.4-0.1L52.2,16.6z M58.5,12.4c-0.1,0.1-0.1,0.3-0.3,0.3l-4.8,3.1l5.2,4.6c0-0.1,0.1-0.3,0.1-0.4v-6.9
		C58.7,12.9,58.6,12.6,58.5,12.4z M58.5,12.4c-0.1,0.1-0.1,0.3-0.3,0.3l-4.8,3.1l5.2,4.6c0-0.1,0.1-0.3,0.1-0.4v-6.9
		C58.7,12.9,58.6,12.6,58.5,12.4z M52.2,16.6l-0.8,0.5c-0.1,0.1-0.3,0.1-0.4,0.1c-0.1,0-0.3,0-0.4-0.1l-0.8-0.5l-5.4,4.8
		c0.1,0,0.3,0.1,0.4,0.1h12.4c0.1,0,0.3,0,0.4-0.1L52.2,16.6z M44.7,11.6l6.3,4.1l6.3-4.1H44.7z M43.4,12.5L43.4,12.5
		c-0.1,0.2-0.1,0.4-0.1,0.6V20c0,0.2,0,0.3,0.1,0.4l5.2-4.6L43.4,12.5z M43.4,12.5L43.4,12.5c-0.1,0.2-0.1,0.4-0.1,0.6V20
		c0,0.2,0,0.3,0.1,0.4l5.2-4.6L43.4,12.5z M44.7,11.6l6.3,4.1l6.3-4.1H44.7z M52.2,16.6l-0.8,0.5c-0.1,0.1-0.3,0.1-0.4,0.1
		c-0.1,0-0.3,0-0.4-0.1l-0.8-0.5l-5.4,4.8c0.1,0,0.3,0.1,0.4,0.1h12.4c0.1,0,0.3,0,0.4-0.1L52.2,16.6z M58.5,12.4
		c-0.1,0.1-0.1,0.3-0.3,0.3l-4.8,3.1l5.2,4.6c0-0.1,0.1-0.3,0.1-0.4v-6.9C58.7,12.9,58.6,12.6,58.5,12.4z M58.5,12.4
		c-0.1,0.1-0.1,0.3-0.3,0.3l-4.8,3.1l5.2,4.6c0-0.1,0.1-0.3,0.1-0.4v-6.9C58.7,12.9,58.6,12.6,58.5,12.4z M51.4,17.2
		c-0.1,0.1-0.3,0.1-0.4,0.1c-0.1,0-0.3,0-0.4-0.1l-0.8-0.5l-5.4,4.8c0.1,0,0.3,0.1,0.4,0.1h12.4c0.1,0,0.3,0,0.4-0.1l-5.4-4.8
		L51.4,17.2z M57.3,11.6H44.7l6.3,4.1L57.3,11.6z M43.4,12.5L43.4,12.5c-0.1,0.2-0.1,0.4-0.1,0.6V20c0,0.2,0,0.3,0.1,0.4l5.2-4.6
		L43.4,12.5z M51,3.7c-6.1,0-11.3,4.1-12.6,10c-0.2,1-0.3,2-0.3,3c0,2.9,0.9,5.6,2.6,7.8c0.2,0.2,0.2,0.5,0.1,0.8l-2.9,6.1l7.9-2.7
		c0.2-0.1,0.4-0.1,0.5,0c2.7,1.1,5.9,1.2,8.7,0.3c5.4-1.7,9-6.7,9-12.4C64,9.5,58.2,3.7,51,3.7z M59.6,21.8c0,0.1-0.1,0.2-0.2,0.3
		c-0.1,0.1-0.2,0.2-0.3,0.2c-0.5,0.4-1.2,0.7-1.9,0.7H44.8c-0.7,0-1.4-0.3-1.9-0.7c-0.1,0-0.2-0.1-0.3-0.2s-0.1-0.2-0.1-0.3
		c-0.4-0.5-0.6-1.1-0.6-1.8v-6.9c0-1.7,1.3-3,3-3h12.4c1.7,0,3,1.3,3,3V20C60.2,20.7,60,21.3,59.6,21.8z M58.3,12.7l-4.8,3.1
		l5.2,4.6c0-0.1,0.1-0.3,0.1-0.4v-6.9c0-0.3-0.1-0.5-0.2-0.8C58.5,12.5,58.4,12.6,58.3,12.7z M51.4,17.2c-0.1,0.1-0.3,0.1-0.4,0.1
		c-0.1,0-0.3,0-0.4-0.1l-0.8-0.5l-5.4,4.8c0.1,0,0.3,0.1,0.4,0.1h12.4c0.1,0,0.3,0,0.4-0.1l-5.4-4.8L51.4,17.2z M57.3,11.6H44.7
		l6.3,4.1L57.3,11.6z M43.4,12.5L43.4,12.5c-0.1,0.2-0.1,0.4-0.1,0.6V20c0,0.2,0,0.3,0.1,0.4l5.2-4.6L43.4,12.5z M43.4,12.5
		L43.4,12.5c-0.1,0.2-0.1,0.4-0.1,0.6V20c0,0.2,0,0.3,0.1,0.4l5.2-4.6L43.4,12.5z M44.7,11.6l6.3,4.1l6.3-4.1H44.7z M52.2,16.6
		l-0.8,0.5c-0.1,0.1-0.3,0.1-0.4,0.1c-0.1,0-0.3,0-0.4-0.1l-0.8-0.5l-5.4,4.8c0.1,0,0.3,0.1,0.4,0.1h12.4c0.1,0,0.3,0,0.4-0.1
		L52.2,16.6z M58.5,12.4c-0.1,0.1-0.1,0.3-0.3,0.3l-4.8,3.1l5.2,4.6c0-0.1,0.1-0.3,0.1-0.4v-6.9C58.7,12.9,58.6,12.6,58.5,12.4z
		 M58.5,12.4c-0.1,0.1-0.1,0.3-0.3,0.3l-4.8,3.1l5.2,4.6c0-0.1,0.1-0.3,0.1-0.4v-6.9C58.7,12.9,58.6,12.6,58.5,12.4z M52.2,16.6
		l-0.8,0.5c-0.1,0.1-0.3,0.1-0.4,0.1c-0.1,0-0.3,0-0.4-0.1l-0.8-0.5l-5.4,4.8c0.1,0,0.3,0.1,0.4,0.1h12.4c0.1,0,0.3,0,0.4-0.1
		L52.2,16.6z M44.7,11.6l6.3,4.1l6.3-4.1H44.7z M43.4,12.5L43.4,12.5c-0.1,0.2-0.1,0.4-0.1,0.6V20c0,0.2,0,0.3,0.1,0.4l5.2-4.6
		L43.4,12.5z M43.4,12.5L43.4,12.5c-0.1,0.2-0.1,0.4-0.1,0.6V20c0,0.2,0,0.3,0.1,0.4l5.2-4.6L43.4,12.5z M44.7,11.6l6.3,4.1l6.3-4.1
		H44.7z M52.2,16.6l-0.8,0.5c-0.1,0.1-0.3,0.1-0.4,0.1c-0.1,0-0.3,0-0.4-0.1l-0.8-0.5l-5.4,4.8c0.1,0,0.3,0.1,0.4,0.1h12.4
		c0.1,0,0.3,0,0.4-0.1L52.2,16.6z M58.5,12.4c-0.1,0.1-0.1,0.3-0.3,0.3l-4.8,3.1l5.2,4.6c0-0.1,0.1-0.3,0.1-0.4v-6.9
		C58.7,12.9,58.6,12.6,58.5,12.4z M58.5,12.4c-0.1,0.1-0.1,0.3-0.3,0.3l-4.8,3.1l5.2,4.6c0-0.1,0.1-0.3,0.1-0.4v-6.9
		C58.7,12.9,58.6,12.6,58.5,12.4z M52.2,16.6l-0.8,0.5c-0.1,0.1-0.3,0.1-0.4,0.1c-0.1,0-0.3,0-0.4-0.1l-0.8-0.5l-5.4,4.8
		c0.1,0,0.3,0.1,0.4,0.1h12.4c0.1,0,0.3,0,0.4-0.1L52.2,16.6z M44.7,11.6l6.3,4.1l6.3-4.1H44.7z M43.4,12.5L43.4,12.5
		c-0.1,0.2-0.1,0.4-0.1,0.6V20c0,0.2,0,0.3,0.1,0.4l5.2-4.6L43.4,12.5z M43.4,12.5L43.4,12.5c-0.1,0.2-0.1,0.4-0.1,0.6V20
		c0,0.2,0,0.3,0.1,0.4l5.2-4.6L43.4,12.5z M44.7,11.6l6.3,4.1l6.3-4.1H44.7z M52.2,16.6l-0.8,0.5c-0.1,0.1-0.3,0.1-0.4,0.1
		c-0.1,0-0.3,0-0.4-0.1l-0.8-0.5l-5.4,4.8c0.1,0,0.3,0.1,0.4,0.1h12.4c0.1,0,0.3,0,0.4-0.1L52.2,16.6z M58.5,12.4
		c-0.1,0.1-0.1,0.3-0.3,0.3l-4.8,3.1l5.2,4.6c0-0.1,0.1-0.3,0.1-0.4v-6.9C58.7,12.9,58.6,12.6,58.5,12.4z M58.5,12.4
		c-0.1,0.1-0.1,0.3-0.3,0.3l-4.8,3.1l5.2,4.6c0-0.1,0.1-0.3,0.1-0.4v-6.9C58.7,12.9,58.6,12.6,58.5,12.4z M52.2,16.6l-0.8,0.5
		c-0.1,0.1-0.3,0.1-0.4,0.1c-0.1,0-0.3,0-0.4-0.1l-0.8-0.5l-5.4,4.8c0.1,0,0.3,0.1,0.4,0.1h12.4c0.1,0,0.3,0,0.4-0.1L52.2,16.6z
		 M44.7,11.6l6.3,4.1l6.3-4.1H44.7z M43.4,12.5L43.4,12.5c-0.1,0.2-0.1,0.4-0.1,0.6V20c0,0.2,0,0.3,0.1,0.4l5.2-4.6L43.4,12.5z" fill="#5d77ff" class="color000 svgShape"></path></svg></g></svg>