<svg id="SvgjsSvg1071" width="288" height="288" xmlns="http://www.w3.org/2000/svg" version="1.1" xmlns:xlink="http://www.w3.org/1999/xlink" xmlns:svgjs="http://svgjs.com/svgjs"><defs id="SvgjsDefs1072"></defs><g id="SvgjsG1073"><svg xmlns="http://www.w3.org/2000/svg" xmlns:svgjs="http://svgjs.com/svgjs" xmlns:xlink="http://www.w3.org/1999/xlink" viewBox="0 0 288 288" width="288" height="288"><svg xmlns="http://www.w3.org/2000/svg" viewBox="0 0 48 48" width="288" height="288"><path style="line-height:normal;text-indent:0;text-align:start;text-decoration-line:none;text-decoration-style:solid;text-decoration-color:#000;text-transform:none;block-progression:tb;isolation:auto;mix-blend-mode:normal" fill="#ffffff" d="M24 0C10.751 0 0 10.751 0 24s10.751 24 24 24 24-10.751 24-24S37.249 0 24 0zm0 1c12.708 0 23 10.292 23 23 0 12.709-10.292 23-23 23S1 36.709 1 24C1 11.292 11.292 1 24 1zm1.701 7.002-.03.463c-.014.222-.124.383-.337.533-.213.15-.527.253-.807.272h-2.634a3.187 3.187 0 0 0-3.176 3.19v2.4c0 .066.002.082.002.025 0-.034-.002-.039-.002.031v1.047a.5.5 0 0 0 0 .074v2.111c0 1.32.493 2.514 1.281 3.448v.82l-3.014-3.014c.472-1.467.196-3.083-.91-4.19a4.134 4.134 0 0 0-2.931-1.21 4.13 4.13 0 0 0-2.93 1.21 4.152 4.152 0 0 0 0 5.862c1.106 1.104 2.722 1.38 4.187.908l3.504 3.504-3.566 2.035a4.618 4.618 0 0 0-2.34 4.012v8.469h24v-8.469c0-1.657-.893-3.19-2.338-4.012h-.002l-3.574-2.04 3.547-3.55c1.457.469 3.064.192 4.162-.906a4.12 4.12 0 0 0 1.006-4.181.5.5 0 0 0-.83-.2l-2.342 2.342-1.457-.162-.16-1.457 2.338-2.338a.5.5 0 0 0-.2-.83 4.118 4.118 0 0 0-2.23-.086 4.115 4.115 0 0 0-1.95 1.088c-1.095 1.098-1.369 2.703-.902 4.158l-3.068 3.069v-.744a5.33 5.33 0 0 0 1.354-3.536v-3.232c0-.055-.002-.05-.002-.025 0 .02.002.032.002-.028V11.32l-.006-.03c-.118-.899-.393-1.709-.918-2.317-.525-.609-1.312-.976-2.26-.971h-.467zm.649 1.07c.57.044 1.014.197 1.32.551.345.4.58 1.018.682 1.783v3.455c0-.052-.002-.041-.002.02a.32.32 0 0 0 .002.031v.287a2.898 2.898 0 0 0-.895-.326c-.698-.128-1.423-.072-2.121-.043-.698.03-1.366.033-1.914-.117-.548-.15-.982-.42-1.344-1.045a.5.5 0 0 0-.46-.248.5.5 0 0 0-.456.37c.013-.048-.085.158-.252.355a6.73 6.73 0 0 1-.637.642c-.19.168-.377.305-.556.43v-.305c0 .055.001.037.002-.027 0-.077-.002-.072-.002-.028v-2.396c0-1.227.964-2.193 2.176-2.193h2.701c.454-.03.921-.174 1.316-.452.228-.16.3-.48.44-.744zm-4.641 5.658c.43.456.917.801 1.45.948.742.204 1.506.184 2.22.154.714-.03 1.382-.069 1.898.025.484.088.811.256 1.075.66v1.628c0 2.42-1.92 4.351-4.317 4.351-2.397 0-4.318-1.93-4.318-4.351v-1.75c.13-.06.253-.136.385-.22.277-.174.563-.398.835-.64.273-.242.528-.5.735-.744.017-.02.02-.042.037-.06zm-8.564.264c.803 0 1.606.312 2.222.928a3.139 3.139 0 0 1 .656 3.484.5.5 0 0 0 .104.555l3.871 3.871v.457l-.84.48a.5.5 0 0 0-.183.104l-.17.098-3.848-3.846a.5.5 0 0 0-.555-.105 3.142 3.142 0 0 1-3.482-.653h-.002a3.137 3.137 0 0 1 .002-4.445 3.139 3.139 0 0 1 2.225-.926v-.002zm21.707.117-1.72 1.717a.5.5 0 0 0-.144.412l.233 2.092a.5.5 0 0 0 .441.441l2.094.233a.5.5 0 0 0 .408-.145l1.72-1.72c-.008.802-.212 1.59-.798 2.177a3.115 3.115 0 0 1-3.457.65.5.5 0 0 0-.555.104l-3.89 3.893-1.186-.676v-.445l3.926-3.926a.5.5 0 0 0 .105-.557 3.112 3.112 0 0 1 .647-3.45c.587-.586 1.373-.792 2.176-.8zm-21.155.537a.494.506 44.997 0 0-.123.018l-1.994.557a.494.506 44.997 0 0-.357.357l-.555 1.994a.494.506 44.997 0 0 .123.48l1.438 1.44a.494.506 44.997 0 0 .482.123l1.994-.556a.494.506 44.997 0 0 .313-.243.494.506 44.997 0 0 .046-.115l.553-1.994a.494.506 44.997 0 0-.123-.48l-1.437-1.44a.494.506 44.997 0 0-.36-.14zm-.152 1.059 1.033 1.033-.398 1.434-1.438.402-1.035-1.037.4-1.434 1.438-.398zm7.453 5.828a5.264 5.264 0 0 0 6 .059v.908c0 .316-.235.67-.773.978-.539.308-1.338.522-2.227.522-.89 0-1.688-.214-2.227-.522-.538-.307-.773-.662-.773-.978v-.967zm-.225 2.463c.153.13.322.247.502.35.729.416 1.68.654 2.723.654 1.044 0 1.994-.238 2.723-.654.18-.103.35-.22.502-.35l.818.467-1.635 6.537h-4.89l-1.625-6.5.882-.504zm8.17.982 1.723.985-1.729 6.916a.5.5 0 0 0-.001.014c-.142.643-.557 1.107-1.112 1.107-.575 0-.97-.353-.902-.934l2.021-8.086v-.002zm-9.955.038L21 34.068c.068.58-.327.934-.902.934-.555 0-.97-.464-1.112-1.107a.5.5 0 0 0-.002-.018L17.266 27l1.722-.982zm12.582 1.46 1.594.91a3.614 3.614 0 0 1 1.834 3.143V39h-3v-6.5a.5.5 0 0 0-.5-.5h-1.059l1.131-4.521zm-15.209.038L17.482 32h-.984a.5.5 0 0 0-.5.5V39h-3v-7.469c0-1.299.698-2.497 1.834-3.142h.002l1.527-.873zm.637 5.482h.734l.278 1.107c.216.98.981 1.891 2.088 1.891 1.084 0 2.038-.912 1.896-2.062a.5.5 0 0 0-.01-.061l-.218-.875h4.39l-.218.879a.5.5 0 0 0-.01.059c-.142 1.15.812 2.062 1.896 2.062 1.107 0 1.872-.912 2.088-1.89l.277-1.11h.809v6h-14v-6zm2.9 0a.5.5 0 0 0-.5.5.5.5 0 0 0 .5.5.5.5 0 0 0 .5-.5.5.5 0 0 0-.5-.5zm8.125 0a.5.5 0 0 0-.5.5.5.5 0 0 0 .5.5.5.5 0 0 0 .5-.5.5.5 0 0 0-.5-.5z" class="color000 svgShape colorfff" color="#000" font-family="sans-serif" font-weight="400" overflow="visible"></path></svg></svg></g></svg>