<svg id="SvgjsSvg1126" width="288" height="288" xmlns="http://www.w3.org/2000/svg" version="1.1" xmlns:xlink="http://www.w3.org/1999/xlink" xmlns:svgjs="http://svgjs.com/svgjs"><defs id="SvgjsDefs1127"></defs><g id="SvgjsG1128"><svg xmlns="http://www.w3.org/2000/svg" data-name="Layer 1" viewBox="0 0 64 64" width="288" height="288"><circle cx="32" cy="30" r="4" fill="#ffffff" class="color000 svgShape"></circle><path d="M24,50H40V38.571A4.572,4.572,0,0,0,35.429,34H32l2.286,6.857L32,44l-2.286-3.143L32,34H28.571A4.572,4.572,0,0,0,24,38.571Z" fill="#ffffff" class="color000 svgShape"></path><polygon points="34.163 13.726 32 9.343 29.837 13.726 25 14.428 28.5 17.84 27.674 22.657 32 20.383 36.326 22.657 35.5 17.84 39 14.428 34.163 13.726" fill="#ffffff" class="color000 svgShape"></polygon><polygon points="45.106 24.111 47.154 26.604 47.887 23.462 50.891 22.285 48.129 20.617 47.937 17.396 45.497 19.507 42.375 18.694 43.629 21.667 41.891 24.385 45.106 24.111" fill="#ffffff" class="color000 svgShape"></polygon><polygon points="18.503 19.507 16.063 17.396 15.871 20.617 13.109 22.285 16.113 23.462 16.846 26.604 18.894 24.111 22.109 24.385 20.371 21.667 21.625 18.694 18.503 19.507" fill="#ffffff" class="color000 svgShape"></polygon><path d="M32,1A31,31,0,1,0,47.5,58.85l-1-1.732a29.078,29.078,0,1,1,8.937-8.054L51.878,46.1,50.455,56.534l10-3.292-3.476-2.893A30.993,30.993,0,0,0,32,1Z" fill="#ffffff" class="color000 svgShape"></path></svg></g></svg>