<svg id="SvgjsSvg1098" width="288" height="288" xmlns="http://www.w3.org/2000/svg" version="1.1" xmlns:xlink="http://www.w3.org/1999/xlink" xmlns:svgjs="http://svgjs.com/svgjs"><defs id="SvgjsDefs1099"></defs><g id="SvgjsG1100"><svg xmlns="http://www.w3.org/2000/svg" viewBox="0 0 24 24" width="288" height="288"><path d="M17,9H9V7a3,3,0,0,1,5.12-2.13,3.08,3.08,0,0,1,.78,1.38,1,1,0,1,0,1.94-.5,5.09,5.09,0,0,0-1.31-2.29A5,5,0,0,0,7,7V9a3,3,0,0,0-3,3v7a3,3,0,0,0,3,3H17a3,3,0,0,0,3-3V12A3,3,0,0,0,17,9Zm1,10a1,1,0,0,1-1,1H7a1,1,0,0,1-1-1V12a1,1,0,0,1,1-1H17a1,1,0,0,1,1,1Z" fill="#ffffff" class="color000 svgShape"></path></svg></g></svg>