<svg id="SvgjsSvg1168" width="288" height="288" xmlns="http://www.w3.org/2000/svg" version="1.1" xmlns:xlink="http://www.w3.org/1999/xlink" xmlns:svgjs="http://svgjs.com/svgjs"><defs id="SvgjsDefs1169"></defs><g id="SvgjsG1170"><svg xmlns="http://www.w3.org/2000/svg" viewBox="0 0 64 64" width="288" height="288"><path fill="#ffffff" d="M32 26.77A5.24 5.24 0 0 0 26.77 32 5.24 5.24 0 0 0 32 37.23 5.24 5.24 0 0 0 37.23 32 5.24 5.24 0 0 0 32 26.77zm0 6.52c-.71 0-1.29-.58-1.29-1.29s.58-1.29 1.29-1.29c.71 0 1.29.58 1.29 1.29s-.58 1.29-1.29 1.29z" class="color273064 svgShape"></path><path fill="#ffffff" d="M32.02 0h-.04C14.35.01 0 14.36 0 32c0 17.63 14.34 31.98 31.97 32h.06C49.66 63.98 64 49.63 64 32 64 14.36 49.65.01 32.02 0zm1.95 4.02c13.9.97 25.04 12.11 26.01 26h-5.52c-.95-10.86-9.63-19.54-20.49-20.48V4.02zm0 9.48c8.69.92 15.61 7.84 16.53 16.53h-4.99c-.87-5.96-5.58-10.67-11.54-11.53v-5zM50.5 33.96c-.92 8.69-7.84 15.62-16.53 16.54v-4.99c5.96-.87 10.68-5.58 11.54-11.55h4.99zM30.03 4.02v5.52c-10.86.95-19.54 9.62-20.49 20.48H4.02c.97-13.9 12.11-25.03 26.01-26zm0 9.48v4.99c-5.96.87-10.67 5.58-11.54 11.53H13.5c.92-8.68 7.84-15.6 16.53-16.52zm0 46.48c-13.9-.97-25.04-12.11-26.01-26.02h5.52c.94 10.87 9.62 19.55 20.49 20.49v5.53zm0-9.48c-8.69-.92-15.62-7.84-16.53-16.54h4.99c.86 5.96 5.58 10.68 11.54 11.55v4.99zM32 41.73c-5.36 0-9.72-4.35-9.73-9.71v-.05c.02-5.35 4.37-9.7 9.73-9.7 5.35 0 9.71 4.35 9.73 9.69v.06c-.02 5.36-4.37 9.71-9.73 9.71zm1.97 18.25v-5.52c10.87-.95 19.55-9.63 20.49-20.49h5.52c-.97 13.9-12.11 25.04-26.01 26.01z" class="color273064 svgShape"></path></svg></g></svg>