<svg id="SvgjsSvg1259" width="288" height="288" xmlns="http://www.w3.org/2000/svg" version="1.1" xmlns:xlink="http://www.w3.org/1999/xlink" xmlns:svgjs="http://svgjs.com/svgjs"><defs id="SvgjsDefs1260"></defs><g id="SvgjsG1261"><svg xmlns="http://www.w3.org/2000/svg" enable-background="new 0 0 512 512" viewBox="0 0 512 512" width="288" height="288"><path d="M56.161 135.339c8.461 4.002 13.15 8.689 17.15 17.15 1.664 3.518 6.758 3.518 8.422 0 4.004-8.461 8.691-13.148 17.15-17.15 3.52-1.666 3.52-6.758 0-8.422-8.459-4.002-13.146-8.691-17.15-17.152-1.664-3.518-6.758-3.518-8.422 0-4 8.461-8.689 13.15-17.15 17.152C52.644 128.581 52.644 133.673 56.161 135.339zM427.249 138.079c8.459 4.004 13.148 8.691 17.15 17.152 1.664 3.518 6.76 3.518 8.422 0 4-8.461 8.691-13.148 17.15-17.152 3.521-1.664 3.521-6.756 0-8.42-8.459-4.004-13.15-8.691-17.15-17.152-1.662-3.518-6.758-3.518-8.422 0-4.002 8.461-8.691 13.148-17.15 17.152C423.729 131.323 423.729 136.415 427.249 138.079zM375.411 141.753c0-62.596-50.924-113.523-113.52-113.523S148.37 79.157 148.37 141.753s50.926 113.521 113.521 113.521S375.411 204.349 375.411 141.753zM261.892 241.175c-54.82 0-99.42-44.6-99.42-99.422 0-54.82 44.6-99.422 99.42-99.422s99.42 44.602 99.42 99.422C361.312 196.575 316.712 241.175 261.892 241.175z" fill="#00a0ff" class="color000 svgShape"></path><path d="M245.212 127.724c.502-1.813.762-3.697.762-5.619.014-.246.023-.492.023-.742 0-6.887-5.582-12.473-12.473-12.473-.193 0-.389.006-.576.016-3.836.176-7.221 2.08-9.389 4.953-.506.674-1.498.674-2.004 0-2.275-3.018-5.893-4.969-9.965-4.969-6.865 0-12.436 5.549-12.473 12.414h-.027v.801c0 2.797.549 5.525 1.59 8.051 1.404 3.428 3.703 6.473 6.725 8.785l5.949 4.547 3.621 2.775.445.338 1.975 1.514.039.033 1.545 1.18c.916.701 2.188.701 3.105 0l1.342-1.031.563-.426 1.455-1.117.967-.736 9.246-7.076C241.374 136.095 244.003 132.136 245.212 127.724zM312.222 108.89c-.195 0-.389.006-.576.016-3.838.176-7.223 2.08-9.391 4.953-.506.674-1.496.674-2.002 0-2.275-3.018-5.893-4.969-9.965-4.969-6.865 0-12.436 5.549-12.473 12.414h-.029v.801c0 2.797.551 5.525 1.592 8.051 1.402 3.428 3.701 6.473 6.725 8.785l5.949 4.547 3.621 2.775.445.338 1.977 1.514.039.033 1.541 1.18c.918.701 2.189.701 3.105 0l1.344-1.031.561-.426 1.457-1.117.965-.736 9.248-7.076c3.719-2.846 6.344-6.805 7.555-11.217.5-1.813.76-3.697.76-5.619.016-.246.025-.492.025-.742C324.694 114.476 319.108 108.89 312.222 108.89zM261.216 184.466c-8.963 0-16.252-7.291-16.252-16.252h-14.1c0 16.736 13.613 30.352 30.352 30.352 16.736 0 30.354-13.615 30.354-30.352h-14.1C277.47 177.175 270.177 184.466 261.216 184.466zM115.794 256.726c-62.596 0-113.52 50.928-113.52 113.523s50.924 113.521 113.52 113.521c62.594 0 113.523-50.926 113.523-113.521S178.388 256.726 115.794 256.726zM115.794 469.671c-54.82 0-99.42-44.6-99.42-99.422 0-54.82 44.6-99.422 99.42-99.422 54.822 0 99.424 44.602 99.424 99.422C215.218 425.071 170.616 469.671 115.794 469.671z" fill="#00a0ff" class="color000 svgShape"></path><path d="M90.05 352.085c-7.125-3.369-11.072-7.316-14.441-14.441-1.402-2.963-5.691-2.963-7.092 0-3.371 7.125-7.318 11.072-14.441 14.441-2.963 1.402-2.963 5.691 0 7.094 7.123 3.369 11.07 7.316 14.441 14.441 1.4 2.963 5.689 2.963 7.092 0 3.369-7.125 7.316-11.072 14.441-14.441C93.013 357.776 93.013 353.487 90.05 352.085zM175.11 352.085c-7.123-3.369-11.07-7.316-14.441-14.441-1.402-2.963-5.691-2.963-7.092 0-3.371 7.125-7.318 11.072-14.441 14.441-2.963 1.402-2.963 5.691 0 7.094 7.123 3.369 11.07 7.316 14.441 14.441 1.4 2.963 5.689 2.963 7.092 0 3.371-7.125 7.318-11.072 14.441-14.441C178.077 357.776 178.077 353.487 175.11 352.085z" fill="#00a0ff" class="color000 svgShape"></path><ellipse cx="115.796" cy="410.851" rx="21.988" ry="30.668" fill="#00a0ff" class="color000 svgShape"></ellipse><path d="M396.204,256.726c-62.596,0-113.521,50.928-113.521,113.523s50.926,113.521,113.521,113.521
		s113.521-50.926,113.521-113.521S458.8,256.726,396.204,256.726z M396.204,469.671c-54.82,0-99.42-44.6-99.42-99.422
		c0-54.82,44.6-99.422,99.42-99.422s99.42,44.602,99.42,99.422C495.624,425.071,451.024,469.671,396.204,469.671z" fill="#00a0ff" class="color000 svgShape"></path><path d="M356.608 354.905c4.121 0 7.471 3.352 7.471 7.471h14.102c0-11.895-9.676-21.57-21.572-21.57-11.893 0-21.572 9.676-21.572 21.57h14.1C349.136 358.257 352.491 354.905 356.608 354.905zM434.534 340.806c-11.896 0-21.572 9.676-21.572 21.57h14.1c0-4.119 3.352-7.471 7.473-7.471 4.117 0 7.473 3.352 7.473 7.471h14.1C456.106 350.481 446.427 340.806 434.534 340.806zM435.655 394.69h-76.893c-5.152 0-9.049 4.736-7.994 9.779 4.508 21.512 23.59 37.67 46.441 37.67 22.85 0 41.932-16.158 46.439-37.67C444.704 399.427 440.808 394.69 435.655 394.69z" fill="#00a0ff" class="color000 svgShape"></path></svg></g></svg>