<svg id="SvgjsSvg1093" width="288" height="288" xmlns="http://www.w3.org/2000/svg" version="1.1" xmlns:xlink="http://www.w3.org/1999/xlink" xmlns:svgjs="http://svgjs.com/svgjs"><defs id="SvgjsDefs1094"></defs><g id="SvgjsG1095"><svg xmlns="http://www.w3.org/2000/svg" data-name="Layer 1" viewBox="0 0 64 64" width="288" height="288"><path d="M60,1H18a3,3,0,0,0-3,3V8H11a3,3,0,0,0-3,3v4H4a3,3,0,0,0-3,3V46a3,3,0,0,0,3,3H19.344a3.754,3.754,0,0,0,.254.793,3.7,3.7,0,0,0,1.761,1.79l7.4,4.529a.975.975,0,0,0,.175.085,9.11,9.11,0,0,0,2.616.553L34.431,63h2.2l-3.524-7.656a.978.978,0,0,0-.933-.581,7.126,7.126,0,0,1-2.454-.409l-7.367-4.506a.978.978,0,0,0-.106-.057,1.727,1.727,0,0,1-.834-.833,1.68,1.68,0,0,1,.6-2.127,1.649,1.649,0,0,1,1.268-.246l2.942,1.3a1,1,0,0,0,1.312-1.333L19.592,29.292a1,1,0,1,1,1.817-.837l3.341,7.258,0,.011,2.927,6.357.908-.418.909-.418h0l-.506-1.1-2.423-5.265a1,1,0,0,1,1.817-.833l2.929,6.36.908-.419.908-.418h0l-.639-1.389L31.041,35.03a1,1,0,0,1,.49-1.326,1,1,0,0,1,1.327.49l2.09,4.542,1.817-.836-1.256-2.728a1,1,0,0,1,1.815-.835l3.942,8.6a7.144,7.144,0,0,1-.519,7.2,1,1,0,0,0-.093,1L46.117,63h2.2L42.7,50.8A8.733,8.733,0,0,0,43.53,49H46a3,3,0,0,0,3-3V42h4a3,3,0,0,0,3-3V35h4a3,3,0,0,0,3-3V4A3,3,0,0,0,60,1ZM47,46a1,1,0,0,1-1,1H43.944a9.6,9.6,0,0,0-.861-4.9l-3.94-8.6a3,3,0,0,0-4.9-.81,2.984,2.984,0,0,0-4.469-.143,2.952,2.952,0,0,0-4.378-.223l-2.167-4.709a3,3,0,1,0-5.45,2.508l6.839,14.86-.609-.269a.911.911,0,0,0-.157-.054A3.682,3.682,0,0,0,19.475,47H4a1,1,0,0,1-1-1V18a1,1,0,0,1,1-1H46a1,1,0,0,1,1,1Zm7-7a1,1,0,0,1-1,1H49V18a3,3,0,0,0-3-3H10V11a1,1,0,0,1,1-1H53a1,1,0,0,1,1,1Zm7-7a1,1,0,0,1-1,1H56V11a3,3,0,0,0-3-3H17V4a1,1,0,0,1,1-1H60a1,1,0,0,1,1,1Z" fill="#3fc609" class="color000 svgShape"></path><circle cx="37" cy="19" r="1" fill="#3fc609" class="color000 svgShape"></circle><circle cx="41" cy="19" r="1" fill="#3fc609" class="color000 svgShape"></circle><circle cx="45" cy="19" r="1" fill="#3fc609" class="color000 svgShape"></circle><circle cx="44" cy="12" r="1" fill="#3fc609" class="color000 svgShape"></circle><circle cx="48" cy="12" r="1" fill="#3fc609" class="color000 svgShape"></circle><circle cx="52" cy="12" r="1" fill="#3fc609" class="color000 svgShape"></circle><circle cx="51" cy="5" r="1" fill="#3fc609" class="color000 svgShape"></circle><circle cx="55" cy="5" r="1" fill="#3fc609" class="color000 svgShape"></circle><circle cx="59" cy="5" r="1" fill="#3fc609" class="color000 svgShape"></circle><path d="M15.937 38.35a1 1 0 0 0-.282-1.106l-4-3.466-1.31 1.512L12.319 37H5v2H15A1 1 0 0 0 15.937 38.35zM5.063 40.65a1 1 0 0 0 .282 1.106l4 3.466 1.31-1.512L8.681 42H16V40H6A1 1 0 0 0 5.063 40.65z" fill="#3fc609" class="color000 svgShape"></path></svg></g></svg>