<svg id="SvgjsSvg1227" width="288" height="288" xmlns="http://www.w3.org/2000/svg" version="1.1" xmlns:xlink="http://www.w3.org/1999/xlink" xmlns:svgjs="http://svgjs.com/svgjs"><defs id="SvgjsDefs1228"></defs><g id="SvgjsG1229"><svg xmlns="http://www.w3.org/2000/svg" viewBox="0 0 32 32" width="288" height="288"><path fill="#f05756" d="M12.399,11.026l-.278-.037c-.125-.018-.244-.06-.352-.122-.309-.179-.501-.511-.501-.867,0-.551,.449-1,1-1,.356,0,.688,.192,.867,.501,.277,.477,.888,.641,1.367,.364,.478-.277,.641-.889,.364-1.367-.36-.622-.938-1.066-1.598-1.303v-.195c0-.552-.448-1-1-1s-1,.448-1,1v.184c-1.161,.414-2,1.514-2,2.816,0,1.067,.574,2.062,1.499,2.598,.33,.191,.689,.315,1.079,.372l.29,.039c.493,.066,.865,.492,.865,.991,0,.551-.449,1-1,1-.356,0-.688-.192-.867-.5-.277-.479-.89-.642-1.366-.365-.479,.277-.642,.888-.365,1.366,.409,.708,1.09,1.205,1.866,1.401v.098c0,.552,.448,1,1,1s1-.448,1-1v-.291c1.02-.48,1.732-1.509,1.732-2.709,0-1.497-1.118-2.775-2.601-2.974Z" class="color017ea7 svgShape"></path><path fill="#f99593" d="M29.675,25.279l-4.303-4.182,.697-.717c.531-.546,.705-1.333,.454-2.052-.251-.72-.877-1.228-1.633-1.325l-6.612-.85c-.63-.08-1.246,.133-1.689,.589-.442,.456-.641,1.077-.542,1.705l1.036,6.585c.119,.753,.644,1.365,1.37,1.596,.729,.231,1.508,.035,2.039-.512l.697-.717,4.302,4.182c.194,.189,.446,.283,.697,.283,.261,0,.521-.101,.717-.303l2.789-2.868c.185-.19,.287-.446,.283-.711s-.112-.518-.303-.703Z" class="color7bd0e6 svgShape"></path><path fill="#f99593" d="M18.533,14.168l4.105,.528c.227-.863,.362-1.762,.362-2.696,0-6.065-4.935-11-11-11S1,5.935,1,12s4.935,11,11,11c.929,0,1.824-.133,2.682-.358l-.611-3.884c-.194-1.238,.211-2.513,1.084-3.41,.873-.898,2.139-1.335,3.378-1.179Zm-5.266,2.541v.291c0,.552-.448,1-1,1s-1-.448-1-1v-.098c-.775-.197-1.456-.693-1.866-1.401-.276-.478-.113-1.089,.365-1.366,.476-.276,1.089-.113,1.366,.365,.178,.308,.511,.5,.867,.5,.551,0,1-.449,1-1,0-.499-.372-.925-.865-.991l-.29-.039c-.39-.057-.749-.181-1.079-.372-.925-.536-1.499-1.531-1.499-2.598,0-1.302,.839-2.402,2-2.816v-.184c0-.552,.448-1,1-1s1,.448,1,1v.195c.659,.236,1.237,.68,1.598,1.303,.277,.478,.114,1.09-.364,1.367-.479,.277-1.089,.113-1.367-.364-.179-.309-.511-.501-.867-.501-.551,0-1,.449-1,1,0,.356,.192,.688,.501,.867,.108,.062,.228,.104,.352,.122l.278,.037c1.483,.198,2.601,1.477,2.601,2.974,0,1.2-.712,2.229-1.732,2.709Z" class="color7bd0e6 svgShape"></path></svg></g></svg>