<svg id="SvgjsSvg1076" width="288" height="288" xmlns="http://www.w3.org/2000/svg" version="1.1" xmlns:xlink="http://www.w3.org/1999/xlink" xmlns:svgjs="http://svgjs.com/svgjs"><defs id="SvgjsDefs1077"></defs><g id="SvgjsG1078"><svg xmlns="http://www.w3.org/2000/svg" fill="none" viewBox="0 0 24 24" width="288" height="288"><path fill="#ffffff" fill-rule="evenodd" d="M21.25 3.601a.75.75 0 0 1-.75.75h-4a.75.75 0 0 1 0-1.5h4a.75.75 0 0 1 .75.75zm0 3a.75.75 0 0 1-.75.75h-4a.75.75 0 0 1 0-1.5h4a.75.75 0 0 1 .75.75zm-2 3a.75.75 0 0 1-.75.75h-2a.75.75 0 0 1 0-1.5h2a.75.75 0 0 1 .75.75z" clip-rule="evenodd" class="color575F69 svgShape"></path><path fill="#ffffff" fill-rule="evenodd" d="M9.5 4.053a4.75 4.75 0 1 0 0 9.5 4.75 4.75 0 0 0 0-9.5Z" clip-rule="evenodd" class="colorA2DBF9 svgShape"></path><path fill="#ffffff" fill-rule="evenodd" d="M9.5 12.053a6.75 6.75 0 0 0-6.75 6.75v.28c0 .622.435 1.157 1.042 1.285l1.752.369c2.609.55 5.303.55 7.913 0l1.75-.369a1.312 1.312 0 0 0 1.043-1.284v-.28a6.75 6.75 0 0 0-6.75-6.75Z" clip-rule="evenodd" class="colorA2DBF9 svgShape"></path></svg></g></svg>