<svg id="SvgjsSvg1174" width="288" height="288" xmlns="http://www.w3.org/2000/svg" version="1.1" xmlns:xlink="http://www.w3.org/1999/xlink" xmlns:svgjs="http://svgjs.com/svgjs"><defs id="SvgjsDefs1175"></defs><g id="SvgjsG1176"><svg xmlns="http://www.w3.org/2000/svg" enable-background="new 0 0 32 32" viewBox="0 0 32 32" width="288" height="288"><path d="M30.293,25.879l-2.172-2.172c-0.564-0.564-1.318-0.876-2.121-0.876c-0.498,0-0.971,0.133-1.396,0.358l-0.742-0.742
		C25.813,20.173,27,17.225,27,14c0-7.168-5.832-13-13-13C6.832,1,1,6.832,1,14s5.832,13,13,13c3.225,0,6.173-1.188,8.447-3.139
		l0.742,0.742c-0.226,0.426-0.358,0.898-0.358,1.396c0,0.803,0.312,1.557,0.876,2.121l2.172,2.172
		c0.564,0.564,1.318,0.876,2.121,0.876s1.557-0.312,2.121-0.876l0.172-0.172c0.564-0.564,0.876-1.318,0.876-2.121
		S30.857,26.443,30.293,25.879z M14,25c-3.956,0-7.42-2.106-9.359-5.249c0.021-0.018,0.046-0.024,0.066-0.044l5.387-5.387L13.4,16.8
		c0.398,0.301,0.956,0.26,1.307-0.093L20,11.414V13c0,0.553,0.447,1,1,1s1-0.447,1-1V9c0-0.13-0.026-0.26-0.077-0.382
		c-0.102-0.245-0.296-0.439-0.541-0.541C21.26,8.026,21.13,8,21,8h-4c-0.552,0-1,0.447-1,1s0.448,1,1,1h1.586l-4.68,4.68L10.6,12.2
		c-0.398-0.3-0.956-0.26-1.307,0.093L3.716,17.87C3.261,16.664,3,15.363,3,14C3,7.935,7.935,3,14,3s11,4.935,11,11S20.065,25,14,25z
		 M28.879,28.707l-0.172,0.172c-0.375,0.373-1.039,0.373-1.414,0l-2.172-2.172c-0.187-0.188-0.29-0.438-0.29-0.707
		s0.104-0.52,0.29-0.707l0.172-0.172c0.188-0.187,0.438-0.29,0.707-0.29s0.52,0.104,0.707,0.29l2.172,2.172
		c0.187,0.188,0.29,0.438,0.29,0.707S29.065,28.52,28.879,28.707z" fill="#ffffff" class="color000 svgShape"></path><path d="M10 18c-.552 0-1 .447-1 1v3c0 .553.448 1 1 1s1-.447 1-1v-3C11 18.447 10.552 18 10 18zM14 18c-.552 0-1 .447-1 1v3c0 .553.448 1 1 1s1-.447 1-1v-3C15 18.447 14.552 18 14 18zM18 18c-.553 0-1 .447-1 1v3c0 .553.447 1 1 1s1-.447 1-1v-3C19 18.447 18.553 18 18 18z" fill="#ffffff" class="color000 svgShape"></path></svg></g></svg>