<svg id="SvgjsSvg1001" width="288" height="288" xmlns="http://www.w3.org/2000/svg" version="1.1" xmlns:xlink="http://www.w3.org/1999/xlink" xmlns:svgjs="http://svgjs.com/svgjs"><defs id="SvgjsDefs1002"></defs><g id="SvgjsG1008"><svg xmlns="http://www.w3.org/2000/svg" enable-background="new 0 0 64 64" viewBox="0 0 64 64" width="288" height="288"><rect width="2" height="6" x="26" y="56" fill="#ffffff" class="color000 svgShape"></rect><rect width="2" height="6" x="36" y="56" fill="#ffffff" class="color000 svgShape"></rect><rect width="2" height="6" x="44" y="56" fill="#ffffff" class="color000 svgShape"></rect><rect width="2" height="6" x="54" y="56" fill="#ffffff" class="color000 svgShape"></rect><path d="M6,56c0-1.654,1.346-3,3-3h10c1.654,0,3,1.346,3,3v6h2v-6c0-1.654,1.346-3,3-3h10c1.654,0,3,1.346,3,3v6h2v-6	c0-1.654,1.346-3,3-3h10c1.654,0,3,1.346,3,3v6h2v-6c0-2.757-2.243-5-5-5h-0.54c0.954-1.063,1.54-2.462,1.54-4c0-3.309-2.691-6-6-6
	s-6,2.691-6,6c0,1.538,0.586,2.937,1.54,4H45c-1.641,0-3.088,0.806-4,2.031C40.088,51.806,38.641,51,37,51h-0.54
	c0.954-1.063,1.54-2.462,1.54-4c0-3.309-2.691-6-6-6s-6,2.691-6,6c0,1.538,0.586,2.937,1.54,4H27c-1.641,0-3.088,0.806-4,2.031
	C22.088,51.806,20.641,51,19,51h-0.54c0.954-1.063,1.54-2.462,1.54-4c0-3.309-2.691-6-6-6s-6,2.691-6,6c0,1.538,0.586,2.937,1.54,4
	H9c-2.757,0-5,2.243-5,5v6h2V56z M50,43c2.206,0,4,1.794,4,4s-1.794,4-4,4s-4-1.794-4-4S47.794,43,50,43z M32,43
	c2.206,0,4,1.794,4,4s-1.794,4-4,4s-4-1.794-4-4S29.794,43,32,43z M14,43c2.206,0,4,1.794,4,4s-1.794,4-4,4s-4-1.794-4-4
	S11.794,43,14,43z" fill="#ffffff" class="color000 svgShape"></path><rect width="2" height="6" x="8" y="56" fill="#ffffff" class="color000 svgShape"></rect><rect width="2" height="6" x="18" y="56" fill="#ffffff" class="color000 svgShape"></rect><path d="M11.182,27.784C12.016,31.947,15.684,35,20,35c1.273,0,2.536-0.274,3.697-0.8C25.791,36.625,28.772,38,32,38
	s6.209-1.375,8.303-3.8C41.464,34.726,42.727,35,44,35c4.316,0,7.984-3.053,8.818-7.216C56.391,26.952,59,23.729,59,20
	s-2.609-6.952-6.182-7.784C51.984,8.053,48.316,5,44,5c-1.273,0-2.536,0.274-3.697,0.8C38.209,3.375,35.228,2,32,2
	s-6.209,1.375-8.303,3.8C22.536,5.274,21.273,5,20,5c-4.316,0-7.984,3.053-8.818,7.216C7.609,13.048,5,16.271,5,20
	S7.609,26.952,11.182,27.784z M12.192,14.062c0.453-0.061,0.807-0.422,0.859-0.876C13.46,9.659,16.447,7,20,7
	c1.212,0,2.413,0.321,3.472,0.928c0.439,0.251,0.999,0.135,1.301-0.272C26.493,5.333,29.128,4,32,4s5.507,1.333,7.228,3.655
	c0.302,0.407,0.862,0.524,1.301,0.272C41.587,7.321,42.788,7,44,7c3.553,0,6.54,2.659,6.948,6.186
	c0.052,0.454,0.406,0.815,0.859,0.876C54.768,14.461,57,17.014,57,20s-2.232,5.539-5.192,5.938
	c-0.453,0.061-0.807,0.422-0.859,0.876C50.54,30.341,47.553,33,44,33c-1.212,0-2.413-0.321-3.472-0.928
	c-0.439-0.251-0.999-0.135-1.301,0.272C37.507,34.667,34.872,36,32,36s-5.507-1.333-7.228-3.655
	c-0.195-0.263-0.497-0.405-0.804-0.405c-0.169,0-0.341,0.043-0.497,0.132C22.413,32.679,21.212,33,20,33
	c-3.553,0-6.54-2.659-6.948-6.186c-0.052-0.454-0.406-0.815-0.859-0.876C9.232,25.539,7,22.986,7,20S9.232,14.461,12.192,14.062z" fill="#ffffff" class="color000 svgShape"></path><path d="M32,32c6.617,0,12-5.383,12-12S38.617,8,32,8s-12,5.383-12,12S25.383,32,32,32z M32,10c5.514,0,10,4.486,10,10
	s-4.486,10-10,10s-10-4.486-10-10S26.486,10,32,10z" fill="#ffffff" class="color000 svgShape"></path><path d="M28 17c.384 0 .719.218.886.537C29.044 17.839 29.384 18 29.725 18h.009c.742 0 1.253-.797.894-1.446C30.117 15.628 29.13 15 28 15s-2.117.628-2.628 1.554C25.013 17.203 25.524 18 26.266 18h.009c.341 0 .68-.161.839-.463C27.281 17.218 27.616 17 28 17zM36 17c.384 0 .719.218.886.537C37.044 17.839 37.384 18 37.725 18h.009c.742 0 1.253-.797.894-1.446C38.117 15.628 37.13 15 36 15s-2.117.628-2.628 1.554C33.013 17.203 33.524 18 34.266 18h.009c.341 0 .68-.161.839-.463C35.281 17.218 35.616 17 36 17zM28.131 22h-.003c-.651 0-1.133.617-.971 1.248C27.713 25.403 29.674 27 32 27s4.287-1.597 4.842-3.752C37.005 22.617 36.523 22 35.872 22h-.003c-.473 0-.851.34-.976.797C34.543 24.065 33.379 25 32 25c-1.379 0-2.543-.935-2.893-2.203C28.982 22.34 28.604 22 28.131 22z" fill="#ffffff" class="color000 svgShape"></path></svg></g></svg>