<svg xmlns="http://www.w3.org/2000/svg" viewBox="0 0 24 24"><path fill="#D4281B" d="M12.021 3.477A8.533 8.533 0 0 0 3.477 12s-.022 1.164.318 2.318h7.459l-3.115 5.876 7.539-7.614H5.428L16.94 1.064A11.925 11.925 0 0 0 12 0C5.383 0 0 5.383 0 12a12.005 12.005 0 0 0 5.744 10.237l3.582-6.758-6.396-.004A9.542 9.542 0 0 1 2.29 12c0-5.358 4.374-9.715 9.73-9.715.46 0 .92.033 1.375.098l-1.094 1.099a8.716 8.716 0 0 0-.28-.005z"/><path fill="#D4281B" d="M18.255 1.764 14.674 8.52h6.394c.427 1.11.647 2.29.647 3.479 0 .467-.036.934-.103 1.395-.776 5.317-5.718 8.995-11.032 8.218l1.084-1.096A8.535 8.535 0 0 0 20.525 12s0-1.239-.319-2.318h-7.46l3.115-5.876-7.656 7.616h10.28L7.059 22.935A11.896 11.896 0 0 0 12 24c6.616 0 12-5.384 12-12a12.007 12.007 0 0 0-5.745-10.236z"/></svg>