<svg xmlns="http://www.w3.org/2000/svg" xmlns:xlink="http://www.w3.org/1999/xlink" viewBox="0,0,256,256" width="60px" height="60px" fill-rule="nonzero"><g fill="#41ab29" fill-rule="nonzero" stroke="none" stroke-width="1" stroke-linecap="butt" stroke-linejoin="miter" stroke-miterlimit="10" stroke-dasharray="" stroke-dashoffset="0" font-family="none" font-weight="none" font-size="none" text-anchor="none" style="mix-blend-mode: normal"><g transform="scale(8.53333,8.53333)"><path d="M6,4c-1.105,0 -2,0.895 -2,2v18c0,1.105 0.895,2 2,2h18c1.105,0 2,-0.895 2,-2v-17.87891l-7.5,7.5l-5.06055,-5.06055l2.12109,-2.12109l2.93945,2.93945l5.37891,-5.37891zM9.99023,14.88086c1.831,0 3.09786,0.9905 3.13086,2.4375h-1.83594c-0.043,-0.553 -0.56858,-0.9375 -1.26758,-0.9375c-0.699,0 -1.1582,0.32961 -1.1582,0.84961c0,0.428 0.34692,0.67684 1.16992,0.83984l1.00781,0.19531c1.544,0.298 2.23633,0.99828 2.23633,2.23828c0.001,1.631 -1.24497,2.61523 -3.29297,2.61523c-1.977,0 -3.22286,-0.9315 -3.25586,-2.4375h1.89648c0.049,0.569 0.61841,0.93164 1.44141,0.93164c0.742,0 1.25,-0.35709 1.25,-0.87109c0,-0.433 -0.34037,-0.6667 -1.23437,-0.8457l-1.0293,-0.20508c-1.43,-0.271 -2.16602,-1.05125 -2.16602,-2.28125c0,-1.528 1.22242,-2.5293 3.10742,-2.5293zM18.0293,16.89258c1.83,0 2.89648,1.10991 2.89648,3.00391v0.52344h-3.99414v0.0957c0.016,0.773 0.45773,1.25195 1.17773,1.25195c0.549,0 0.92864,-0.20283 1.05664,-0.54883h1.72266c-0.208,1.157 -1.29603,1.88867 -2.83203,1.88867c-1.894,0 -2.98242,-1.12136 -2.98242,-3.06836c0,-1.958 1.11508,-3.14648 2.95508,-3.14648zM18.03906,18.23242c-0.619,0 -1.04966,0.43152 -1.09766,1.10352h2.1543c-0.032,-0.693 -0.42764,-1.10352 -1.05664,-1.10352z"></path></g></g></svg>