<svg id="SvgjsSvg1234" width="288" height="288" xmlns="http://www.w3.org/2000/svg" version="1.1" xmlns:xlink="http://www.w3.org/1999/xlink" xmlns:svgjs="http://svgjs.com/svgjs"><defs id="SvgjsDefs1235"></defs><g id="SvgjsG1236"><svg xmlns="http://www.w3.org/2000/svg" viewBox="0 0 32 32" width="288" height="288"><path d="M4.344 3A.5.5 0 0 0 4 3.5v23a.5.5 0 0 0 .5.5h19.813l2.968 3A1.205 1.205 0 1 0 29 28.281l-1.313-1.312A.5.5 0 0 0 28 26.5v-23a.5.5 0 0 0-.5-.5h-23a.5.5 0 0 0-.156 0zM5 4h22v3H5V4zm1.5 1a.5.5 0 1 0 0 1 .5.5 0 0 0 0-1zm2 0a.5.5 0 1 0 0 1 .5.5 0 0 0 0-1zm2 0a.5.5 0 1 0 0 1 .5.5 0 0 0 0-1zM5 8h22v18h-.281l-2.469-2.438a1.205 1.205 0 0 0-1.219-.312l-1.468-1.438c1.993-2.367 1.919-5.893-.282-8.093-2.326-2.326-6.145-2.292-8.5.062-2.354 2.355-2.357 6.174-.031 8.5.08.081.166.144.25.219h-2a.5.5 0 0 0-.156 0 .5.5 0 0 0-.344.5v2a.5.5 0 0 0 .5.5h2a.5.5 0 0 0 .5-.5v-2a.5.5 0 0 0 0-.094c.319.227.652.438 1 .594V25a.5.5 0 0 0 .5.5h2a.5.5 0 0 0 .5-.5v-1.031c.34-.034.668-.096 1-.188V25a.5.5 0 0 0 .5.5h2a.5.5 0 0 0 .5-.5v-1.781l.781.75a1.205 1.205 0 0 0 .282 1.281l.75.75H5V8zm12.063 5a4.91 4.91 0 0 1 3.53 1.438c1.515 1.514 1.793 3.766.907 5.624V18a.5.5 0 0 0-.5-.5h-2a.5.5 0 0 0-.156 0 .5.5 0 0 0-.344.5v4.719c-.328.11-.661.178-1 .218V16a.5.5 0 0 0-.5-.5h-2a.5.5 0 0 0-.156 0 .5.5 0 0 0-.344.5v6.375a5.012 5.012 0 0 1-1.063-.813c-1.937-1.937-1.915-5.084.063-7.062a5.093 5.093 0 0 1 3.563-1.5zM15.5 16.5h1v6.469a4.89 4.89 0 0 1-1-.188V16.5zm4 2h1v3c-.301.301-.654.54-1 .75V18.5zm-12.656 1a.5.5 0 0 0-.344.5v5a.5.5 0 0 0 .5.5h2a.5.5 0 0 0 .5-.5v-5a.5.5 0 0 0-.5-.5H7a.5.5 0 0 0-.156 0zm.656 1h1v4h-1v-4zm13 2.313V24.5h-1v-1.094a5.93 5.93 0 0 0 1-.593zm-9 .687h1v1h-1v-1zm4 .344c.329.08.664.102 1 .125v.531h-1v-.656z" color="#000" font-family="Sans" font-weight="400" overflow="visible" style="text-indent:0;text-align:start;line-height:normal;text-transform:none;block-progression:tb;marker:none;-inkscape-font-specification:Sans" fill="#249fe6" class="color000 svgShape"></path></svg></g></svg>