<svg id="SvgjsSvg1214" width="288" height="288" xmlns="http://www.w3.org/2000/svg" version="1.1" xmlns:xlink="http://www.w3.org/1999/xlink" xmlns:svgjs="http://svgjs.com/svgjs"><defs id="SvgjsDefs1215"></defs><g id="SvgjsG1216"><svg xmlns="http://www.w3.org/2000/svg" viewBox="0 0 48 48" width="288" height="288"><g data-name="Tracking Delivery" fill="#ffffff" class="color000 svgShape"><path d="M47,0H1A1,1,0,0,0,0,1V47a1,1,0,0,0,1,1H47a1,1,0,0,0,1-1V1A1,1,0,0,0,47,0ZM2,2H46V8H2ZM46,46H2V10H46Z" fill="#ffffff" class="color000 svgShape"></path><path d="M5 4A1 1 0 0 0 5 6 1 1 0 0 0 5 4zM9 4A1 1 0 0 0 9 6 1 1 0 0 0 9 4zM13 4a1 1 0 0 0 0 2A1 1 0 0 0 13 4zM8.74 21.67C9.29 21.06 12 17.94 12 16a4 4 0 0 0-8 0c0 1.94 2.71 5.06 3.26 5.67A1 1 0 0 0 8.74 21.67zM8 14a2 2 0 0 1 2 2c0 .64-.94 2.13-2 3.45C6.94 18.12 6 16.62 6 16A2 2 0 0 1 8 14zM37 26H14a7 7 0 0 0 0 14H30a1 1 0 0 0 0-2H14a5 5 0 0 1 0-10H37a6 6 0 0 0 0-12c-21.94 0-19.75.16-19.29-.29a1 1 0 0 0-1.42-1.42c-2.22 2.23-2.08 2.05-2.19 2.3a1 1 0 0 0 .19 1.12C16.47 19.89 16.46 20 17 20a1 1 0 0 0 .71-1.71C17.25 17.84 15.05 18 37 18a4 4 0 0 1 0 8z" fill="#ffffff" class="color000 svgShape"></path><path d="M42,34H34a1,1,0,0,0-1,1v8a1,1,0,0,0,1,1h8a1,1,0,0,0,1-1V35A1,1,0,0,0,42,34Zm-1,8H35V36h2v1a1,1,0,0,0,2,0V36h2Z" fill="#ffffff" class="color000 svgShape"></path></g></svg></g></svg>