<svg id="SvgjsSvg1044" width="288" height="288" xmlns="http://www.w3.org/2000/svg" version="1.1" xmlns:xlink="http://www.w3.org/1999/xlink" xmlns:svgjs="http://svgjs.com/svgjs"><defs id="SvgjsDefs1045"></defs><g id="SvgjsG1046"><svg xmlns="http://www.w3.org/2000/svg" viewBox="0 0 24 24" width="288" height="288"><g fill="none" fill-rule="evenodd"><path stroke="#5d77ff" stroke-linecap="round" d="M7.01 19H5a2 2 0 0 1-2-2V5a2 2 0 0 1 2-2h15a2 2 0 0 1 2 2v12a2 2 0 0 1-2 2h-2.1" class="colorStroke4A4A4A svgStroke"></path><path stroke="#5d77ff" stroke-linecap="square" d="M3.5 7.5h18" class="colorStroke4A4A4A svgStroke"></path><circle cx="5.5" cy="5.5" r="1" fill="#9cacfb" stroke="#5d77ff" stroke-width=".5" class="color4A4A4A svgShape colorStroke4A4A4A svgStroke"></circle><circle cx="7.5" cy="5.5" r="1" fill="#9cacfb" stroke="#5d77ff" stroke-width=".5" class="color4A4A4A svgShape colorStroke4A4A4A svgStroke"></circle><circle cx="9.5" cy="5.5" r="1" fill="#9cacfb" stroke="#5d77ff" stroke-width=".5" class="color4A4A4A svgShape colorStroke4A4A4A svgStroke"></circle><path stroke="#5d77ff" d="M11 22.5v-5a1.5 1.5 0 0 1 3 0v5" class="colorStroke4A4A4A svgStroke"></path><path stroke="#5d77ff" stroke-linecap="round" d="M15.561 20.164a4 4 0 1 0-6.21-.107" class="colorStroke4A4A4A svgStroke"></path><path fill="#9cacfb" d="M12.5 17a.5.5 0 0 1 .5.5v.5h-1v-.5a.5.5 0 0 1 .5-.5z" class="color4A4A4A svgShape"></path></g></svg></g></svg>